REM DIRINDEX 1\6,1\2\7,1\2\8,1\2\9,1\3\10,1\3\11,1\4\12,1\4\13,1\4\14,1\5\15,1\5\16,1\5\17
REM DIRNAME folder01,folder02,folder03,folder04,folder05,folder06,folder07,folder08,folder09,folder10,folder11,folder12,folder13,folder14,folder15,folder16,folder17
TITLE ""
FILE "3Q_t2_0860-0875.mp3" MP3
  TRACK 01 AUDIO
    TITLE "7:cjc041_5999"
    INDEX 01 00:00:00
  TRACK 02 AUDIO
    TITLE "0:"
    INDEX 01 00:01:15
  TRACK 03 AUDIO
    TITLE "8:cjc041_6000"
    INDEX 01 00:01:71
  TRACK 04 AUDIO
    TITLE "0:"
    INDEX 01 00:03:12
  TRACK 05 AUDIO
    TITLE "9:cjc041_6001"
    INDEX 01 00:03:66
  TRACK 06 AUDIO
    TITLE "0:"
    INDEX 01 00:05:12
  TRACK 07 AUDIO
    TITLE "7:cjc041_6002"
    INDEX 01 00:06:67
  TRACK 08 AUDIO
    TITLE "0:"
    INDEX 01 00:08:09
  TRACK 09 AUDIO
    TITLE "8:cjc041_6003"
    INDEX 01 00:08:52
  TRACK 10 AUDIO
    TITLE "0:"
    INDEX 01 00:11:01
  TRACK 11 AUDIO
    TITLE "9:cjc041_6004"
    INDEX 01 00:11:52
  TRACK 12 AUDIO
    TITLE "0:"
    INDEX 01 00:12:69
  TRACK 13 AUDIO
    TITLE "7:cjc041_6005"
    INDEX 01 00:14:45
  TRACK 14 AUDIO
    TITLE "0:"
    INDEX 01 00:15:48
  TRACK 15 AUDIO
    TITLE "8:cjc041_6006"
    INDEX 01 00:16:30
  TRACK 16 AUDIO
    TITLE "0:"
    INDEX 01 00:18:48
  TRACK 17 AUDIO
    TITLE "9:cjc041_6007"
    INDEX 01 00:19:22
  TRACK 18 AUDIO
    TITLE "0:"
    INDEX 01 00:20:30
  TRACK 19 AUDIO
    TITLE "7:cjc041_6008"
    INDEX 01 00:22:11
  TRACK 20 AUDIO
    TITLE "0:"
    INDEX 01 00:23:24
  TRACK 21 AUDIO
    TITLE "8:cjc041_6009"
    INDEX 01 00:24:04
  TRACK 22 AUDIO
    TITLE "0:"
    INDEX 01 00:25:25
  TRACK 23 AUDIO
    TITLE "9:cjc041_6010"
    INDEX 01 00:26:05
  TRACK 24 AUDIO
    TITLE "0:"
    INDEX 01 00:27:18
  TRACK 25 AUDIO
    TITLE "7:cjc041_6011"
    INDEX 01 00:28:74
  TRACK 26 AUDIO
    TITLE "0:"
    INDEX 01 00:30:12
  TRACK 27 AUDIO
    TITLE "8:cjc041_6012"
    INDEX 01 00:30:63
  TRACK 28 AUDIO
    TITLE "0:"
    INDEX 01 00:32:03
  TRACK 29 AUDIO
    TITLE "9:cjc041_6013"
    INDEX 01 00:32:58
  TRACK 30 AUDIO
    TITLE "0:"
    INDEX 01 00:34:00
  TRACK 31 AUDIO
    TITLE "7:cjc041_6014"
    INDEX 01 00:35:55
  TRACK 32 AUDIO
    TITLE "0:"
    INDEX 01 00:37:01
  TRACK 33 AUDIO
    TITLE "8:cjc041_6015"
    INDEX 01 00:37:50
  TRACK 34 AUDIO
    TITLE "0:"
    INDEX 01 00:39:15
  TRACK 35 AUDIO
    TITLE "9:cjc041_6016"
    INDEX 01 00:39:72
  TRACK 36 AUDIO
    TITLE "0:"
    INDEX 01 00:41:18
  TRACK 37 AUDIO
    TITLE "7:cjc041_6017"
    INDEX 01 00:42:70
  TRACK 38 AUDIO
    TITLE "0:"
    INDEX 01 00:44:28
  TRACK 39 AUDIO
    TITLE "8:cjc041_6018"
    INDEX 01 00:45:06
  TRACK 40 AUDIO
    TITLE "0:"
    INDEX 01 00:46:27
  TRACK 41 AUDIO
    TITLE "9:cjc041_6019"
    INDEX 01 00:47:07
  TRACK 42 AUDIO
    TITLE "0:"
    INDEX 01 00:48:42
  TRACK 43 AUDIO
    TITLE "7:cjc041_6020"
    INDEX 01 00:50:21
  TRACK 44 AUDIO
    TITLE "0:"
    INDEX 01 00:51:58
  TRACK 45 AUDIO
    TITLE "8:cjc041_6021"
    INDEX 01 00:52:32
  TRACK 46 AUDIO
    TITLE "0:"
    INDEX 01 00:54:01
  TRACK 47 AUDIO
    TITLE "9:cjc041_6022"
    INDEX 01 00:54:52
  TRACK 48 AUDIO
    TITLE "0:"
    INDEX 01 00:56:12
  TRACK 49 AUDIO
    TITLE "7:cjc041_6023"
    INDEX 01 00:57:64
  TRACK 50 AUDIO
    TITLE "0:"
    INDEX 01 00:59:04
  TRACK 51 AUDIO
    TITLE "8:cjc041_6024"
    INDEX 01 00:59:53
  TRACK 52 AUDIO
    TITLE "0:"
    INDEX 01 01:00:64
  TRACK 53 AUDIO
    TITLE "9:cjc041_6025"
    INDEX 01 01:01:38
  TRACK 54 AUDIO
    TITLE "0:"
    INDEX 01 01:02:57
  TRACK 55 AUDIO
    TITLE "7:cjc041_6026"
    INDEX 01 01:04:35
  TRACK 56 AUDIO
    TITLE "0:"
    INDEX 01 01:05:42
  TRACK 57 AUDIO
    TITLE "8:cjc041_6027"
    INDEX 01 01:06:16
  TRACK 58 AUDIO
    TITLE "0:"
    INDEX 01 01:07:12
  TRACK 59 AUDIO
    TITLE "9:cjc041_6028"
    INDEX 01 01:07:61
  TRACK 60 AUDIO
    TITLE "0:"
    INDEX 01 01:08:70
  TRACK 61 AUDIO
    TITLE "7:cjc041_6029"
    INDEX 01 01:10:51
  TRACK 62 AUDIO
    TITLE "0:"
    INDEX 01 01:11:60
  TRACK 63 AUDIO
    TITLE "8:cjc041_6030"
    INDEX 01 01:12:38
  TRACK 64 AUDIO
    TITLE "0:"
    INDEX 01 01:13:55
  TRACK 65 AUDIO
    TITLE "9:cjc041_6031"
    INDEX 01 01:14:35
  TRACK 66 AUDIO
    TITLE "0:"
    INDEX 01 01:15:46
  TRACK 67 AUDIO
    TITLE "7:cjc041_6032"
    INDEX 01 01:17:28
  TRACK 68 AUDIO
    TITLE "0:"
    INDEX 01 01:18:45
  TRACK 69 AUDIO
    TITLE "8:cjc041_6033"
    INDEX 01 01:19:21
  TRACK 70 AUDIO
    TITLE "0:"
    INDEX 01 01:21:49
  TRACK 71 AUDIO
    TITLE "9:cjc041_6034"
    INDEX 01 01:22:29
  TRACK 72 AUDIO
    TITLE "0:"
    INDEX 01 01:23:46
  TRACK 73 AUDIO
    TITLE "7:cjc041_6035"
    INDEX 01 01:25:29
  TRACK 74 AUDIO
    TITLE "0:"
    INDEX 01 01:26:48
  TRACK 75 AUDIO
    TITLE "8:cjc041_6036"
    INDEX 01 01:27:26
  TRACK 76 AUDIO
    TITLE "0:"
    INDEX 01 01:28:51
  TRACK 77 AUDIO
    TITLE "9:cjc041_6037"
    INDEX 01 01:29:31
  TRACK 78 AUDIO
    TITLE "0:"
    INDEX 01 01:30:54
  TRACK 79 AUDIO
    TITLE "7:cjc041_6038"
    INDEX 01 01:32:35
  TRACK 80 AUDIO
    TITLE "0:"
    INDEX 01 01:33:54
  TRACK 81 AUDIO
    TITLE "8:cjc041_6039"
    INDEX 01 01:34:30
  TRACK 82 AUDIO
    TITLE "0:"
    INDEX 01 01:35:51
  TRACK 83 AUDIO
    TITLE "9:cjc041_6040"
    INDEX 01 01:36:29
  TRACK 84 AUDIO
    TITLE "0:"
    INDEX 01 01:37:52
  TRACK 85 AUDIO
    TITLE "7:cjc041_6041"
    INDEX 01 01:39:33
  TRACK 86 AUDIO
    TITLE "0:"
    INDEX 01 01:40:54
  TRACK 87 AUDIO
    TITLE "8:cjc041_6042"
    INDEX 01 01:41:32
  TRACK 88 AUDIO
    TITLE "0:"
    INDEX 01 01:42:49
  TRACK 89 AUDIO
    TITLE "9:cjc041_6043"
    INDEX 01 01:43:29
  TRACK 90 AUDIO
    TITLE "0:"
    INDEX 01 01:44:48
  TRACK 91 AUDIO
    TITLE "7:cjc041_6044"
    INDEX 01 01:46:27
  TRACK 92 AUDIO
    TITLE "0:"
    INDEX 01 01:47:42
  TRACK 93 AUDIO
    TITLE "8:cjc041_6045"
    INDEX 01 01:48:24
  TRACK 94 AUDIO
    TITLE "0:"
    INDEX 01 01:49:32
  TRACK 95 AUDIO
    TITLE "9:cjc041_6046"
    INDEX 01 01:50:07
  TRACK 96 AUDIO
    TITLE "0:"
    INDEX 01 01:51:28
